<?xml version="1.0" encoding="utf-8"?>
<!-- Generator: Adobe Illustrator 16.0.0, SVG Export Plug-In . SVG Version: 6.00 Build 0)  -->
<!DOCTYPE svg PUBLIC "-//W3C//DTD SVG 1.1//EN" "http://www.w3.org/Graphics/SVG/1.1/DTD/svg11.dtd">
<svg version="1.1"
	 id="svg8" xmlns:inkscape="http://www.inkscape.org/namespaces/inkscape" xmlns:dc="http://purl.org/dc/elements/1.1/" xmlns:cc="http://creativecommons.org/ns#" xmlns:rdf="http://www.w3.org/1999/02/22-rdf-syntax-ns#" xmlns:svg="http://www.w3.org/2000/svg" xmlns:sodipodi="http://sodipodi.sourceforge.net/DTD/sodipodi-0.dtd" sodipodi:docname="Up-Arrow.svg" inkscape:version="0.92.4 (5da689c313, 2019-01-14)"
	 xmlns="http://www.w3.org/2000/svg" xmlns:xlink="http://www.w3.org/1999/xlink" x="0px" y="0px" width="322.252px"
	 height="412.412px" viewBox="0 0 322.252 412.412" enable-background="new 0 0 322.252 412.412" xml:space="preserve">
<sodipodi:namedview  pagecolor="#ffffff" bordercolor="#666666" borderopacity="1.0" fit-margin-left="0" showgrid="false" inkscape:cx="214.52622" inkscape:zoom="2.3322531" id="base" showguides="true" fit-margin-top="0" inkscape:cy="333.64811" inkscape:window-y="20" inkscape:window-height="1616" inkscape:document-units="mm" inkscape:guide-bbox="true" inkscape:pageopacity="0.0" inkscape:pageshadow="2" inkscape:window-maximized="0" inkscape:window-width="1830" inkscape:current-layer="layer1" fit-margin-right="0" inkscape:window-x="112" fit-margin-bottom="0">
	<sodipodi:guide  inkscape:locked="false" orientation="1,0" position="54.945949,141.35487" id="guide3716"></sodipodi:guide>
	<sodipodi:guide  inkscape:locked="false" orientation="1,0" position="-1.2025684e-07,109.81512" id="guide3736"></sodipodi:guide>
	<sodipodi:guide  inkscape:locked="false" orientation="0,1" position="39.138657,65.117642" id="guide3738"></sodipodi:guide>
	<sodipodi:guide  inkscape:locked="false" orientation="1,0" position="110.15547,126.60504" id="guide3740"></sodipodi:guide>
	<sodipodi:guide  inkscape:locked="false" orientation="0,1" position="1.7016809,102.55462" id="guide3742"></sodipodi:guide>
	<sodipodi:guide  inkscape:locked="false" orientation="1,0" position="64.096639,131.71008" id="guide3744"></sodipodi:guide>
	<sodipodi:guide  inkscape:locked="false" orientation="1,0" position="44.559371,92.229163" id="guide3746"></sodipodi:guide>
	<sodipodi:guide  inkscape:locked="false" orientation="0,1" position="16.222688,93.365553" id="guide3748"></sodipodi:guide>
</sodipodi:namedview>
<path fill="#FF0000" d="M155.753,0c124.805,109.985,56.701,50.62,156.499,136.033v80.625L181.69,109.985v289.949l-55.38,0.757
	V109.985L0,216.105v-80.072L155.753,0z"/>
<path fill="none" stroke="#FFFFFF" stroke-width="10" stroke-miterlimit="10" d="M155.753,0
	c124.805,109.985,56.701,50.62,156.499,136.033v80.625L181.69,109.985v289.949l-55.38,0.757V109.985L0,216.105v-80.072L155.753,0z"
	/>
<path fill="none" stroke="#000000" stroke-width="5" stroke-miterlimit="10" d="M155.753,0
	c124.805,109.985,56.701,50.62,156.499,136.033v80.625L181.69,109.985v289.949l-55.38,0.757V109.985L0,216.105v-80.072L155.753,0z"
	/>
<path fill="none" d="M155.165,268.322c-6.306,0-11.607,2.461-15.907,7.383s-6.449,12.013-6.449,21.27
	c0,9.259,2.149,16.348,6.449,21.27s9.601,7.383,15.907,7.383c6.305,0,11.594-2.461,15.864-7.383
	c4.27-4.922,6.405-12.069,6.405-21.445c0-9.141-2.136-16.172-6.405-21.094C166.759,270.783,161.47,268.322,155.165,268.322z"/>
<path fill="none" d="M264.966,267.707c-5.904,0-10.805,2.329-14.703,6.987s-5.847,11.558-5.847,20.698
	c0,10.489,2.034,18.237,6.104,23.247s9.029,7.515,14.875,7.515c5.617,0,10.289-2.299,14.016-6.899
	c3.726-4.6,5.59-12.143,5.59-22.632c0-9.784-1.922-17.051-5.762-21.797C275.398,270.08,270.642,267.707,264.966,267.707z"/>
<path fill="none" d="M264.966,267.707c-5.904,0-10.805,2.329-14.703,6.987s-5.847,11.558-5.847,20.698
	c0,10.489,2.034,18.237,6.104,23.247s9.029,7.515,14.875,7.515c5.617,0,10.289-2.299,14.016-6.899
	c3.726-4.6,5.59-12.143,5.59-22.632c0-9.784-1.922-17.051-5.762-21.797C275.398,270.08,270.642,267.707,264.966,267.707z"/>
<path fill="none" d="M155.165,268.322c-6.306,0-11.607,2.461-15.907,7.383s-6.449,12.013-6.449,21.27
	c0,9.259,2.149,16.348,6.449,21.27s9.601,7.383,15.907,7.383c6.305,0,11.594-2.461,15.864-7.383
	c4.27-4.922,6.405-12.069,6.405-21.445c0-9.141-2.136-16.172-6.405-21.094C166.759,270.783,161.47,268.322,155.165,268.322z"/>
<g>
	
		<image overflow="visible" opacity="0.75" width="351" height="216" xlink:href="EA333CB3.png"  transform="matrix(1 0 0 1 -14.374 207.7058)">
	</image>
	<g>
		<g>
			<polygon points="111.644,233.476 11.473,233.476 11.473,255.273 48.875,255.273 48.875,362.324 74.327,362.324 74.327,255.273 
				111.644,255.273 			"/>
			<path d="M156.269,266.875c-8.942,0-17.039,2.021-24.29,6.064c-7.253,4.043-12.854,9.903-16.81,17.578
				c-3.955,7.677-5.934,15.616-5.934,23.818c0,10.723,1.979,19.819,5.934,27.29s9.729,13.14,17.325,17.007
				c7.595,3.867,15.577,5.801,23.946,5.801c13.527,0,24.748-4.644,33.662-13.931c8.913-9.286,13.371-20.99,13.371-35.112
				c0-14.003-4.415-25.59-13.242-34.761C181.403,271.46,170.083,266.875,156.269,266.875z M172.219,336.924
				c-4.271,4.922-9.56,7.383-15.864,7.383c-6.307,0-11.607-2.461-15.906-7.383c-4.3-4.922-6.449-12.011-6.449-21.27
				c0-9.257,2.149-16.348,6.449-21.27c4.299-4.922,9.6-7.383,15.906-7.383c6.305,0,11.594,2.461,15.864,7.383
				c4.27,4.922,6.405,11.953,6.405,21.094C178.624,324.854,176.488,332.002,172.219,336.924z"/>
			<path d="M299.688,279.619c-7.395-8.495-16.395-12.744-26.998-12.744c-6.076,0-11.607,1.466-16.595,4.395
				c-4.987,2.931-8.942,6.739-11.866,11.426v-13.711h-22.527v128.848h24.161V350.81c4.528,4.98,8.842,8.496,12.94,10.547
				c4.098,2.051,8.67,3.076,13.715,3.076c10.604,0,19.633-4.32,27.084-12.964c7.451-8.643,11.178-20.756,11.178-36.343
				C310.78,299.952,307.083,288.116,299.688,279.619z M280.601,337.934c-3.727,4.601-8.398,6.899-14.016,6.899
				c-5.846,0-10.805-2.505-14.875-7.515s-6.104-12.758-6.104-23.247c0-9.141,1.948-16.04,5.847-20.698s8.799-6.987,14.703-6.987
				c5.676,0,10.433,2.373,14.273,7.119c3.84,4.746,5.762,12.013,5.762,21.797C286.19,325.792,284.326,333.335,280.601,337.934z"/>
		</g>
		<g>
			<polygon fill="#FFFFFF" points="111.644,233.476 11.473,233.476 11.473,255.273 48.875,255.273 48.875,362.324 74.327,362.324 
				74.327,255.273 111.644,255.273 			"/>
			<path fill="#FFFFFF" d="M156.269,266.875c-8.942,0-17.039,2.021-24.29,6.064c-7.253,4.043-12.854,9.903-16.81,17.578
				c-3.955,7.677-5.934,15.616-5.934,23.818c0,10.723,1.979,19.819,5.934,27.29s9.729,13.14,17.325,17.007
				c7.595,3.867,15.577,5.801,23.946,5.801c13.527,0,24.748-4.644,33.662-13.931c8.913-9.286,13.371-20.99,13.371-35.112
				c0-14.003-4.415-25.59-13.242-34.761C181.403,271.46,170.083,266.875,156.269,266.875z M172.219,336.924
				c-4.271,4.922-9.56,7.383-15.864,7.383c-6.307,0-11.607-2.461-15.906-7.383c-4.3-4.922-6.449-12.011-6.449-21.27
				c0-9.257,2.149-16.348,6.449-21.27c4.299-4.922,9.6-7.383,15.906-7.383c6.305,0,11.594,2.461,15.864,7.383
				c4.27,4.922,6.405,11.953,6.405,21.094C178.624,324.854,176.488,332.002,172.219,336.924z"/>
			<path fill="#FFFFFF" d="M299.688,279.619c-7.395-8.495-16.395-12.744-26.998-12.744c-6.076,0-11.607,1.466-16.595,4.395
				c-4.987,2.931-8.942,6.739-11.866,11.426v-13.711h-22.527v128.848h24.161V350.81c4.528,4.98,8.842,8.496,12.94,10.547
				c4.098,2.051,8.67,3.076,13.715,3.076c10.604,0,19.633-4.32,27.084-12.964c7.451-8.643,11.178-20.756,11.178-36.343
				C310.78,299.952,307.083,288.116,299.688,279.619z M280.601,337.934c-3.727,4.601-8.398,6.899-14.016,6.899
				c-5.846,0-10.805-2.505-14.875-7.515s-6.104-12.758-6.104-23.247c0-9.141,1.948-16.04,5.847-20.698s8.799-6.987,14.703-6.987
				c5.676,0,10.433,2.373,14.273,7.119c3.84,4.746,5.762,12.013,5.762,21.797C286.19,325.792,284.326,333.335,280.601,337.934z"/>
		</g>
		<g>
			<polygon fill="none" stroke="#FFFFFF" stroke-width="3" stroke-linejoin="bevel" points="111.644,233.476 11.473,233.476 
				11.473,255.273 48.875,255.273 48.875,362.324 74.327,362.324 74.327,255.273 111.644,255.273 			"/>
			<path fill="none" stroke="#FFFFFF" stroke-width="3" stroke-linejoin="bevel" d="M156.269,266.875
				c-8.942,0-17.039,2.021-24.29,6.064c-7.253,4.043-12.854,9.903-16.81,17.578c-3.955,7.677-5.934,15.616-5.934,23.818
				c0,10.723,1.979,19.819,5.934,27.29s9.729,13.14,17.325,17.007c7.595,3.867,15.577,5.801,23.946,5.801
				c13.527,0,24.748-4.644,33.662-13.931c8.913-9.286,13.371-20.99,13.371-35.112c0-14.003-4.415-25.59-13.242-34.761
				C181.403,271.46,170.083,266.875,156.269,266.875z M172.219,336.924c-4.271,4.922-9.56,7.383-15.864,7.383
				c-6.307,0-11.607-2.461-15.906-7.383c-4.3-4.922-6.449-12.011-6.449-21.27c0-9.257,2.149-16.348,6.449-21.27
				c4.299-4.922,9.6-7.383,15.906-7.383c6.305,0,11.594,2.461,15.864,7.383c4.27,4.922,6.405,11.953,6.405,21.094
				C178.624,324.854,176.488,332.002,172.219,336.924z"/>
			<path fill="none" stroke="#FFFFFF" stroke-width="3" stroke-linejoin="bevel" d="M299.688,279.619
				c-7.395-8.495-16.395-12.744-26.998-12.744c-6.076,0-11.607,1.466-16.595,4.395c-4.987,2.931-8.942,6.739-11.866,11.426v-13.711
				h-22.527v128.848h24.161V350.81c4.528,4.98,8.842,8.496,12.94,10.547c4.098,2.051,8.67,3.076,13.715,3.076
				c10.604,0,19.633-4.32,27.084-12.964c7.451-8.643,11.178-20.756,11.178-36.343C310.78,299.952,307.083,288.116,299.688,279.619z
				 M280.601,337.934c-3.727,4.601-8.398,6.899-14.016,6.899c-5.846,0-10.805-2.505-14.875-7.515s-6.104-12.758-6.104-23.247
				c0-9.141,1.948-16.04,5.847-20.698s8.799-6.987,14.703-6.987c5.676,0,10.433,2.373,14.273,7.119
				c3.84,4.746,5.762,12.013,5.762,21.797C286.19,325.792,284.326,333.335,280.601,337.934z"/>
		</g>
	</g>
</g>
<g>
	
		<image overflow="visible" opacity="0.75" width="351" height="216" xlink:href="EA333CB5.png"  transform="matrix(1 0 0 1 -16.374 205.7058)">
	</image>
	<g>
		<g>
			<polygon points="109.644,231.336 9.473,231.336 9.473,253.133 46.875,253.133 46.875,360.183 72.327,360.183 72.327,253.133 
				109.644,253.133 			"/>
			<path d="M154.269,264.734c-8.942,0-17.04,2.021-24.29,6.064c-7.252,4.043-12.854,9.903-16.81,17.578
				c-3.955,7.677-5.933,15.616-5.933,23.818c0,10.723,1.978,19.819,5.933,27.29c3.956,7.471,9.729,13.14,17.326,17.007
				c7.595,3.867,15.577,5.801,23.946,5.801c13.527,0,24.748-4.644,33.662-13.931c8.913-9.286,13.371-20.99,13.371-35.112
				c0-14.003-4.415-25.59-13.242-34.761C179.403,269.319,168.083,264.734,154.269,264.734z M170.219,334.783
				c-4.271,4.922-9.56,7.383-15.864,7.383c-6.306,0-11.607-2.461-15.907-7.383s-6.449-12.011-6.449-21.27
				c0-9.257,2.149-16.348,6.449-21.27s9.601-7.383,15.907-7.383c6.305,0,11.594,2.461,15.864,7.383
				c4.27,4.922,6.405,11.953,6.405,21.094C176.624,322.714,174.488,329.861,170.219,334.783z"/>
			<path d="M297.688,277.478c-7.395-8.495-16.395-12.744-26.998-12.744c-6.076,0-11.607,1.466-16.595,4.395
				c-4.987,2.931-8.942,6.739-11.866,11.426v-13.711h-22.527v128.848h24.161V348.67c4.528,4.98,8.842,8.496,12.94,10.547
				c4.098,2.051,8.67,3.076,13.715,3.076c10.604,0,19.633-4.32,27.084-12.964c7.451-8.643,11.178-20.756,11.178-36.343
				C308.78,297.811,305.083,285.975,297.688,277.478z M278.601,335.794c-3.727,4.601-8.398,6.899-14.016,6.899
				c-5.846,0-10.805-2.505-14.875-7.515s-6.104-12.758-6.104-23.247c0-9.141,1.948-16.04,5.847-20.698s8.799-6.987,14.703-6.987
				c5.676,0,10.433,2.373,14.273,7.119c3.84,4.746,5.762,12.013,5.762,21.797C284.19,323.651,282.326,331.194,278.601,335.794z"/>
		</g>
		<g>
			<polygon fill="none" stroke="#FFFFFF" stroke-width="3" stroke-linejoin="bevel" points="109.644,231.336 9.473,231.336 
				9.473,253.133 46.875,253.133 46.875,360.183 72.327,360.183 72.327,253.133 109.644,253.133 			"/>
			<path fill="none" stroke="#FFFFFF" stroke-width="3" stroke-linejoin="bevel" d="M154.269,264.734
				c-8.942,0-17.04,2.021-24.29,6.064c-7.252,4.043-12.854,9.903-16.81,17.578c-3.955,7.677-5.933,15.616-5.933,23.818
				c0,10.723,1.978,19.819,5.933,27.29c3.956,7.471,9.729,13.14,17.326,17.007c7.595,3.867,15.577,5.801,23.946,5.801
				c13.527,0,24.748-4.644,33.662-13.931c8.913-9.286,13.371-20.99,13.371-35.112c0-14.003-4.415-25.59-13.242-34.761
				C179.403,269.319,168.083,264.734,154.269,264.734z M170.219,334.783c-4.271,4.922-9.56,7.383-15.864,7.383
				c-6.306,0-11.607-2.461-15.907-7.383s-6.449-12.011-6.449-21.27c0-9.257,2.149-16.348,6.449-21.27s9.601-7.383,15.907-7.383
				c6.305,0,11.594,2.461,15.864,7.383c4.27,4.922,6.405,11.953,6.405,21.094C176.624,322.714,174.488,329.861,170.219,334.783z"/>
			<path fill="none" stroke="#FFFFFF" stroke-width="3" stroke-linejoin="bevel" d="M297.688,277.478
				c-7.395-8.495-16.395-12.744-26.998-12.744c-6.076,0-11.607,1.466-16.595,4.395c-4.987,2.931-8.942,6.739-11.866,11.426v-13.711
				h-22.527v128.848h24.161V348.67c4.528,4.98,8.842,8.496,12.94,10.547c4.098,2.051,8.67,3.076,13.715,3.076
				c10.604,0,19.633-4.32,27.084-12.964c7.451-8.643,11.178-20.756,11.178-36.343C308.78,297.811,305.083,285.975,297.688,277.478z
				 M278.601,335.794c-3.727,4.601-8.398,6.899-14.016,6.899c-5.846,0-10.805-2.505-14.875-7.515s-6.104-12.758-6.104-23.247
				c0-9.141,1.948-16.04,5.847-20.698s8.799-6.987,14.703-6.987c5.676,0,10.433,2.373,14.273,7.119
				c3.84,4.746,5.762,12.013,5.762,21.797C284.19,323.651,282.326,331.194,278.601,335.794z"/>
		</g>
	</g>
</g>
</svg>
